<?xml version="1.0" encoding="UTF-8" standalone="no"?>
<!-- Generator: Adobe Illustrator 19.0.0, SVG Export Plug-In . SVG Version: 6.00 Build 0)  -->

<svg
   xmlns:dc="http://purl.org/dc/elements/1.1/"
   xmlns:cc="http://creativecommons.org/ns#"
   xmlns:rdf="http://www.w3.org/1999/02/22-rdf-syntax-ns#"
   xmlns:svg="http://www.w3.org/2000/svg"
   xmlns="http://www.w3.org/2000/svg"
   xmlns:xlink="http://www.w3.org/1999/xlink"
   xmlns:sodipodi="http://sodipodi.sourceforge.net/DTD/sodipodi-0.dtd"
   xmlns:inkscape="http://www.inkscape.org/namespaces/inkscape"
   version="1.1"
   id="Layer_1"
   x="0px"
   y="0px"
   viewBox="0 0 512 512"
   style="enable-background:new 0 0 512 512;"
   xml:space="preserve"
   sodipodi:docname="dish4.svg"
   inkscape:version="0.92.2 5c3e80d, 2017-08-06"><metadata
     id="metadata53"><rdf:RDF><cc:Work
         rdf:about=""><dc:format>image/svg+xml</dc:format><dc:type
           rdf:resource="http://purl.org/dc/dcmitype/StillImage" /><dc:title></dc:title></cc:Work></rdf:RDF></metadata><defs
     id="defs51"><filter
       height="1.4808925"
       y="-0.24044624"
       width="1.2287728"
       x="-0.11438636"
       id="filter3409"><feGaussianBlur
         id="feGaussianBlur3411"
         stdDeviation="13.51957"
         inkscape:collect="always" /></filter><linearGradient
       x1="257.18915"
       y1="769.10657"
       x2="279.78009"
       y2="666.57843"
       id="linearGradient4488"
       xlink:href="#linearGradient3344"
       gradientUnits="userSpaceOnUse"
       gradientTransform="matrix(0.605942,0,0,0.6579618,64.316927,224.8806)" /><linearGradient
       id="linearGradient3344"><stop
         style="stop-color:#aa4400;stop-opacity:1"
         offset="0"
         id="stop3346" /><stop
         style="stop-color:#ff8840;stop-opacity:1"
         offset="1"
         id="stop3348" /></linearGradient></defs><sodipodi:namedview
     pagecolor="#ffffff"
     bordercolor="#666666"
     borderopacity="1"
     objecttolerance="10"
     gridtolerance="10"
     guidetolerance="10"
     inkscape:pageopacity="0"
     inkscape:pageshadow="2"
     inkscape:window-width="1856"
     inkscape:window-height="1051"
     id="namedview49"
     showgrid="false"
     inkscape:zoom="1.6679688"
     inkscape:cx="274.17499"
     inkscape:cy="251.31519"
     inkscape:window-x="64"
     inkscape:window-y="128"
     inkscape:window-maximized="1"
     inkscape:current-layer="Layer_1" /><g
     id="g655"><g
       id="g18" /><g
       id="g20" /><g
       id="g22" /><g
       id="g24" /><g
       id="g26" /><g
       id="g28" /><g
       id="g30" /><g
       id="g32" /><g
       id="g34" /><g
       id="g36" /><g
       id="g38" /><g
       id="g40" /><g
       id="g42" /><g
       id="g44" /><g
       id="g46" /><circle
       style="fill:#ac9d93;stroke-width:1.33099997"
       cx="255.63606"
       cy="254.79694"
       r="234.99603"
       id="circle2" /><path
       style="fill:#491e17;stroke-width:1.33099997"
       d="M 254.437,10.817821 C 119.24334,10.817821 9.254821,120.80634 9.254821,256 c 0,135.19366 109.988519,245.18218 245.182179,245.18218 135.19366,0 245.18218,-109.98852 245.18218,-245.18218 0,-135.19366 -109.98852,-245.182179 -245.18218,-245.182179 z m 0,470.004049 C 130.47032,480.82187 29.615128,379.96668 29.615128,256 29.615128,132.03332 130.47032,31.178128 254.437,31.178128 c 123.96668,0 224.82187,100.855192 224.82187,224.821872 0,123.96668 -100.85386,224.82187 -224.82187,224.82187 z"
       id="path8"
       inkscape:connector-curvature="0" /><g
       id="layer1"
       transform="matrix(2.3579477,0,0,2.3579477,1.9711141,4.2887163)"><g
         id="g4479"
         transform="translate(-2.3422081,43.924249)"><path
           id="path3352"
           style="fill:#008000;fill-opacity:1;stroke:#000000;stroke-width:1.44849157;stroke-miterlimit:4;stroke-opacity:1"
           d="m 172.16097,103.02142 c -26.72503,10.96469 -28.36389,-6.575519 -32.39472,-4.778789 -12.48243,5.564009 -46.509202,3.222439 -34.70894,-7.80322 -44.420673,22.186629 -44.395159,-2.02725 -39.182608,-8.33782 1.073005,-1.29903 -37.109547,2.89799 -38.246578,-8.74211 0.878124,-4.66828 -28.13947453,-8.68619 1.818218,-14.18592 -17.340525,-3.04072 4.856197,-22.32209 25.44151,-14.08432 15.812328,-8.15346 49.155518,-5.44261 41.130882,3.6988 13.182496,-27.30251 39.054886,-13.20763 39.343956,-6.52889 4.37142,-7.80745 84.4862,0.43946 39.30957,23.54592 41.7031,5.14508 33.27718,23.34654 5.59657,24.64404 -10.62718,0.49813 3.51547,7.42589 -8.10786,12.572309 z"
           inkscape:connector-curvature="0" /><g
           id="g3361"
           style="fill:#000000;filter:url(#filter3409)"
           transform="matrix(0.4988769,0.1372875,-0.1372875,0.4988769,51.894661,-336.03572)"><path
             id="path3363"
             style="opacity:1;fill:#000000;fill-opacity:1;stroke:#000000;stroke-width:2.52566576;stroke-miterlimit:4;stroke-dasharray:none;stroke-opacity:1"
             d="m 432.33202,676.03678 c -7.84684,0 -14.22069,6.92106 -14.2207,15.44154 0,0.19122 0.0126,0.38618 0.0189,0.57572 h -103.1995 v 33.14483 h 98.74961 c 2.56448,7.91592 10.87846,13.73496 20.75352,13.73495 11.91557,0 21.5867,-8.46135 21.58668,-18.87528 0,-7.99105 -5.69506,-14.81112 -13.72837,-17.55936 2.62872,-2.80156 4.26052,-6.70842 4.26053,-11.02086 0,-8.52048 -6.37387,-15.44152 -14.22071,-15.44154 z"
             inkscape:connector-curvature="0" /><path
             id="path3365"
             style="fill:#000000;fill-opacity:1;stroke:#000000;stroke-width:2.52566576;stroke-miterlimit:4;stroke-opacity:1"
             d="m 354.94067,721.77629 c 10.52985,17.08671 -63.93723,44.59192 -108.98391,44.59192 -45.04668,0 -81.60631,-24.07507 -81.60631,-53.73899 0,-22.19607 20.46901,-41.26305 49.64655,-49.45649 9.81676,-2.75668 20.61932,-4.2825 31.95976,-4.2825 36.93145,0 90.60655,19.32731 112.71987,34.92907 3.66584,2.58639 -3.73596,22.61298 -3.73596,27.95699 z"
             inkscape:connector-curvature="0" /></g><g
           id="g3355"
           transform="matrix(0.4988769,0.1372875,-0.1372875,0.4988769,53.449598,-344.60171)"><path
             id="rect3336"
             style="opacity:1;fill:#e9c6af;fill-opacity:1;stroke:#000000;stroke-width:2.52566576;stroke-miterlimit:4;stroke-dasharray:none;stroke-opacity:1"
             d="m 432.33202,676.03678 c -7.84684,0 -14.22069,6.92106 -14.2207,15.44154 0,0.19122 0.0126,0.38618 0.0189,0.57572 h -103.1995 v 33.14483 h 98.74961 c 2.56448,7.91592 10.87846,13.73496 20.75352,13.73495 11.91557,0 21.5867,-8.46135 21.58668,-18.87528 0,-7.99105 -5.69506,-14.81112 -13.72837,-17.55936 2.62872,-2.80156 4.26052,-6.70842 4.26053,-11.02086 0,-8.52048 -6.37387,-15.44152 -14.22071,-15.44154 z"
             inkscape:connector-curvature="0" /><path
             id="path3334"
             style="fill:url(#linearGradient4488);fill-opacity:1;stroke:#000000;stroke-width:2.52566576;stroke-miterlimit:4;stroke-opacity:1"
             d="m 354.94067,721.77629 c 10.52985,17.08671 -63.93723,44.59192 -108.98391,44.59192 -45.04668,0 -81.60631,-24.07507 -81.60631,-53.73899 0,-22.19607 20.46901,-41.26305 49.64655,-49.45649 9.81676,-2.75668 20.61932,-4.2825 31.95976,-4.2825 36.93145,0 90.60655,19.32731 112.71987,34.92907 3.66584,2.58639 -3.73596,22.61298 -3.73596,27.95699 z"
             inkscape:connector-curvature="0" /></g></g></g><g
       transform="matrix(0.76208248,0,0,0.76231108,-5.9589298,-4.3658724)"
       id="g462"><rect
         width="683"
         height="683"
         x="2.3239747e-07"
         y="-5.3720285e-08"
         style="opacity:0.98999999;fill:none;fill-opacity:0;fill-rule:evenodd;stroke:none;stroke-width:0.97307664;stroke-linecap:round;stroke-linejoin:miter;stroke-miterlimit:1;stroke-dasharray:none;stroke-opacity:1"
         id="rect4151" /><g
         transform="matrix(0.9998952,0,0,0.9951194,-42.674013,-40.768062)"
         style="fill:none;stroke:#000000;stroke-width:0.025in"
         id="g2180"><circle
           cx="385"
           cy="177"
           r="30"
           style="fill:#000000;stroke:#000000;stroke-width:7"
           id="circle2182" /><circle
           cx="593"
           cy="386"
           r="30"
           style="fill:#000000;stroke:#000000;stroke-width:7"
           id="circle2184" /><circle
           cx="533"
           cy="237"
           r="30"
           style="fill:#000000;stroke:#000000;stroke-width:7"
           id="circle2186" /><circle
           cx="384"
           cy="383"
           r="296"
           style="stroke:#000000;stroke-width:30"
           id="circle2188" /><circle
           cx="178"
           cy="383"
           r="30"
           style="fill:#000000;stroke:#000000;stroke-width:7"
           id="circle2190" /><circle
           cx="240"
           cy="238"
           r="30"
           style="fill:#000000;stroke:#000000;stroke-width:7"
           id="circle2192" /><rect
           width="92"
           height="61"
           rx="30"
           x="340"
           y="609"
           style="fill:#000000;stroke:#000000;stroke-width:7;stroke-linecap:butt;stroke-linejoin:miter"
           id="rect2194" /></g><path
         style="fill:#c87137;stroke-width:0.79976583"
         d="M 319.42647,648.72975 C 287.81678,645.74681 268.35378,641.82854 242.64895,633.273 173.95823,610.41012 116.0871,564.87848 77.56572,503.38941 52.801866,463.86054 37.69514,419.93169 32.152149,371.33127 30.809648,359.56036 30.821773,321.96139 32.172008,309.7493 40.004367,238.91016 69.199255,176.24047 117.72546,126.1004 211.81362,28.883099 357.3195,3.6390624 478.97975,63.425837 c 81.22661,39.916713 141.4045,114.116643 163.45094,201.536583 13.24647,52.5258 12.43061,107.17361 -2.38203,159.55328 -10.95891,38.75226 -30.15042,75.92824 -56.04786,108.57059 -10.27587,12.95218 -34.80805,37.47974 -48.02151,48.01245 -11.45733,9.13288 -31.25179,22.42516 -43.71989,29.35858 -37.74109,20.98757 -81.89309,34.28956 -126.04663,37.975 -8.76201,0.73136 -40.07843,0.93044 -46.7863,0.29743 z m -18.63319,-32.89177 c -0.70743,-0.78171 -2.23055,-3.48393 -3.3847,-6.00493 -8.74996,-19.11244 1.56448,-41.34297 21.58609,-46.52412 5.86039,-1.51654 40.25762,-1.76078 46.97879,-0.33357 9.94309,2.11137 19.50333,9.77342 23.57196,18.89174 4.09764,9.18338 3.2665,23.00638 -1.85595,30.86689 -1.10124,1.68987 -1.79734,3.27742 -1.54689,3.52788 0.60916,0.60915 9.90134,-1.07875 21.65801,-3.93412 50.48143,-12.26056 95.72755,-37.62598 132.40366,-74.22679 45.6307,-45.53701 72.86364,-101.97353 80.85917,-167.56946 1.40757,-11.54782 1.40925,-49.12653 0.002,-60.38232 C 614.2859,255.89134 595.45904,209.8199 562.89211,167.79087 554.37729,156.80213 529.19842,131.28688 518.56816,122.87476 473.69651,87.366208 421.65951,66.441418 365.81288,61.449781 344.07368,59.506705 313.76718,60.848455 292.23443,64.707296 210.7877,79.303198 141.19041,127.38089 98.794875,198.335 c -5.95803,9.97148 -16.956483,33.01319 -21.169659,44.35034 -6.943716,18.68469 -12.381624,40.41712 -15.379979,61.4656 -1.732866,12.16473 -2.410583,46.95574 -1.179163,60.53302 5.024667,55.40053 25.738494,106.94732 60.519936,150.60516 8.99862,11.29511 31.76874,34.06812 43.08577,43.09123 28.77885,22.94552 62.70653,40.49954 98.3712,50.8968 9.65386,2.81439 33.02946,7.86873 36.71324,7.93826 2.17623,0.0411 2.24189,-0.0462 1.03706,-1.37743 z"
         id="path413"
         inkscape:connector-curvature="0" /><path
         style="fill:#c87137;stroke-width:0.79976583"
         d="m 126.70229,372.10022 c -12.51155,-3.50968 -21.62428,-13.58923 -23.96685,-26.50962 -2.48577,-13.71024 5.07819,-28.1718 18.17195,-34.74302 5.13013,-2.5746 5.7774,-2.69781 14.17306,-2.69781 8.23443,0 9.14242,0.16343 14.18844,2.55376 11.0168,5.21872 18.15257,15.61483 18.83736,27.44418 0.80921,13.97851 -6.44521,26.05662 -19.23045,32.01739 -6.65685,3.10358 -15.31459,3.85916 -22.17351,1.93512 z"
         id="path415"
         inkscape:connector-curvature="0" /><path
         style="fill:#c87137;stroke-width:0.79976583"
         d="m 192.66359,228.54494 c -11.5623,-1.68816 -20.6158,-8.5844 -25.76013,-19.62201 -1.947,-4.17744 -2.21172,-5.69594 -2.22107,-12.74038 -0.01,-7.34234 0.19811,-8.43824 2.53663,-13.37474 9.35405,-19.74591 32.96213,-25.73071 50.19007,-12.72349 9.23197,6.97021 14.39491,19.37622 12.5919,30.25703 -3.06484,18.49574 -19.38638,30.82455 -37.3374,28.20359 z"
         id="path417"
         inkscape:connector-curvature="0" /><path
         style="fill:#c87137;stroke-width:0.79976583"
         d="m 336.30819,167.7657 c -6.07543,-1.2625 -13.48664,-5.26533 -17.63591,-9.52523 -18.08262,-18.56473 -8.81796,-49.25722 16.5737,-54.90633 29.81867,-6.634025 51.69767,27.66955 33.17184,52.00935 -7.22728,9.49543 -20.84393,14.76328 -32.10963,12.42221 z"
         id="path419"
         inkscape:connector-curvature="0" /><path
         style="fill:#c87137;stroke-width:0.79976583"
         d="m 479.75716,226.31198 c -11.85734,-4.40378 -19.81599,-13.92131 -22.154,-26.49336 -2.453,-13.1903 5.25159,-27.71676 18.05724,-34.04565 16.56254,-8.18566 35.88995,-1.57056 44.13125,15.1046 8.14059,16.47135 1.38595,35.58156 -15.51793,43.90331 -4.5407,2.23538 -6.11097,2.57621 -12.83453,2.78578 -5.95353,0.18556 -8.55702,-0.0941 -11.68203,-1.25468 z"
         id="path421"
         inkscape:connector-curvature="0" /><path
         style="fill:#ffffff;stroke-width:0.79976583"
         d="m 542.96101,375.40125 c -22.5681,-5.60114 -32.92031,-31.10802 -20.29742,-50.01095 3.57397,-5.35207 7.11967,-8.43481 13.26688,-11.53464 18.40204,-9.27952 40.91829,1.16175 46.33416,21.48615 4.63913,17.40948 -6.69664,35.88265 -24.50417,39.93289 -6.43288,1.46313 -9.31482,1.48777 -14.79945,0.12655 z"
         id="path423"
         inkscape:connector-curvature="0" /><path
         style="fill:#ffffff;stroke-width:0.79976583"
         d="M 314.22799,647.92102 C 276.00483,643.30993 253.68648,637.89418 224.29716,626.09849 162.68434,601.36956 109.85069,556.1337 74.902492,498.18765 58.635641,471.21631 46.301078,440.58837 39.113533,409.32015 c -5.826827,-25.34865 -7.585721,-41.10938 -7.595919,-68.0639 -0.01112,-29.3906 2.178038,-48.00544 8.79891,-74.81882 C 62.743085,175.61375 126.53992,98.813465 211.8588,59.930406 c 43.9738,-20.04054 88.12083,-29.002259 137.159,-27.842886 47.41083,1.120898 89.83489,11.703601 132.18379,32.973308 46.97266,23.591993 87.80422,59.492082 117.29654,103.129922 43.1743,63.88219 60.62377,140.16593 49.57724,216.73654 -6.53809,45.31973 -22.76292,87.19097 -49.11976,126.76288 -11.72185,17.59907 -20.2143,27.81931 -37.58823,45.23557 -16.58068,16.62107 -24.16637,23.23704 -37.60075,32.79398 -46.05298,32.76117 -93.52629,51.02157 -149.5513,57.52423 -9.49843,1.10245 -52.44318,1.58717 -59.98734,0.67707 z m -14.74934,-34.86053 c -6.5185,-11.56477 -6.24352,-24.88571 0.7383,-35.76594 3.38128,-5.26926 7.22908,-8.5383 13.5089,-11.47698 4.7583,-2.22668 6.21419,-2.48133 18.20169,-3.18369 8.36786,-0.49029 17.11831,-0.48455 24.45723,0.0161 9.83984,0.67117 12.07132,1.08469 16.06124,2.97633 6.32307,2.99779 13.56568,9.8731 16.32966,15.50153 2.0638,4.20261 2.22984,5.25537 2.22984,14.13792 0,9.16863 -0.11607,9.84226 -2.59924,15.0854 -1.42958,3.01851 -2.59924,5.67902 -2.59924,5.91224 0,1.65671 27.49708,-4.49092 43.18735,-9.65556 32.75096,-10.78038 62.42312,-26.92085 90.13097,-49.02764 10.50074,-8.37805 33.43117,-31.40239 42.11853,-42.29102 30.16024,-37.80248 49.0701,-79.98182 57.72679,-128.7623 2.89144,-16.2933 3.8456,-32.14324 3.32204,-55.18384 -0.39068,-17.19304 -0.79072,-21.96862 -2.85547,-34.08782 -7.84416,-46.04191 -23.45034,-83.97082 -49.58863,-120.51921 -8.6653,-12.11642 -18.44595,-23.14956 -33.97956,-38.3309 -13.74489,-13.43317 -22.32077,-20.35078 -38.49469,-31.0512 -39.10804,-25.873268 -82.22263,-41.183552 -129.45852,-45.971599 -12.50353,-1.267415 -51.09499,-0.551468 -63.68492,1.181479 -24.22413,3.334342 -49.7345,10.205654 -71.97893,19.387788 -21.31161,8.797088 -49.30398,25.469872 -68.37997,40.728422 -11.2536,9.00155 -33.20557,30.96343 -42.29262,42.31172 -25.156629,31.41664 -44.125784,69.81496 -53.62292,108.54621 -6.104244,24.89435 -7.622125,38.55487 -7.641479,68.77127 -0.01703,26.58047 2.690325,47.41818 9.277942,71.40969 10.034431,36.5445 27.741518,71.43839 51.339437,101.17037 7.97302,10.04553 34.47639,36.4987 44.54274,44.45838 31.59196,24.98043 70.25809,43.84074 108.76458,53.05246 15.6104,3.7344 20.45208,4.69052 24.19975,4.77888 l 3.40585,0.0803 z"
         id="path425"
         inkscape:connector-curvature="0" /><path
         style="fill:#ffffff;stroke-width:0.79976583"
         d="m 124.54661,371.02926 c -12.34837,-4.57957 -20.64701,-15.44056 -21.61915,-28.29442 -1.02559,-13.56066 6.46467,-25.87037 19.43491,-31.93987 4.96111,-2.32159 5.5168,-2.40465 14.13955,-2.11341 8.13309,0.27471 9.38832,0.52669 13.37419,2.68486 5.98731,3.24186 12.00991,9.40063 14.84236,15.17796 2.17023,4.4266 2.35261,5.4806 2.35261,13.59602 0,7.99848 -0.20841,9.24859 -2.29479,13.76525 -2.85427,6.17898 -9.83847,13.05608 -16.2748,16.02522 -6.25886,2.88728 -17.71492,3.41257 -23.95488,1.09839 z"
         id="path427"
         inkscape:connector-curvature="0" /><path
         style="fill:#ffffff;stroke-width:0.79976583"
         d="m 189.55869,227.72983 c -8.89693,-2.22144 -17.54142,-9.42035 -21.85158,-18.19743 -2.05413,-4.18295 -2.23554,-5.29886 -2.23532,-13.74973 2.2e-4,-8.57708 0.15481,-9.49104 2.2924,-13.5531 3.07909,-5.85121 10.2332,-12.82315 16.10197,-15.69197 4.37945,-2.14079 5.5321,-2.34568 13.19614,-2.34568 7.76902,0 8.79737,0.18943 13.73966,2.53088 7.36393,3.48872 12.07213,8.068 15.56828,15.14198 6.51019,13.17247 3.70925,27.47973 -7.41738,37.88814 -6.15164,5.75457 -11.81709,8.12576 -20.29103,8.49254 -3.29904,0.14279 -7.39545,-0.0892 -9.10314,-0.51563 z"
         id="path429"
         inkscape:connector-curvature="0" /><path
         style="fill:#ffffff;stroke-width:0.79976583"
         d="m 332.34056,166.24571 c -14.09499,-5.2435 -22.51128,-16.77565 -22.51128,-30.84536 0,-12.97169 6.97305,-23.73699 19.0957,-29.4808 4.8914,-2.31758 5.94039,-2.50983 13.6947,-2.50983 7.52219,0 8.85916,0.22692 12.82606,2.17695 8.6397,4.24706 14.2601,10.52016 17.55535,19.59404 2.57165,7.08137 2.07435,16.96779 -1.19795,23.81566 -3.05942,6.40235 -9.40917,12.63454 -16.02917,15.73242 -7.05147,3.29978 -16.92317,3.93881 -23.43341,1.51692 z"
         id="path431"
         inkscape:connector-curvature="0" /><path
         style="fill:#ffffff;stroke-width:0.79976583"
         d="m 478.97975,225.5548 c -7.43657,-3.24924 -13.27217,-8.25233 -17.00211,-14.57658 -4.90167,-8.31095 -5.47967,-20.55189 -1.37838,-29.19145 2.90718,-6.12412 9.76691,-13.01192 15.98119,-16.04658 4.41984,-2.15837 5.49398,-2.34352 13.60865,-2.34568 8.33812,-0.002 9.0952,0.13791 14.13322,2.61617 6.3144,3.10613 12.26912,9.2117 15.58313,15.9779 2.03243,4.1496 2.25195,5.41372 2.25655,12.99433 0.005,7.79529 -0.17859,8.78532 -2.5562,13.80468 -3.05762,6.45491 -8.62366,12.10678 -15.20901,15.44355 -4.17139,2.11362 -5.48276,2.36103 -13.42055,2.53197 -6.92952,0.14923 -9.47667,-0.10732 -11.99649,-1.20831 z"
         id="path433"
         inkscape:connector-curvature="0" /><g
         id="g438"><path
           inkscape:connector-curvature="0"
           id="path435"
           d="m 540.16183,374.15612 c -9.99511,-3.68393 -18.46541,-12.51556 -21.27599,-22.18361 -3.78861,-13.03237 1.87412,-27.9916 13.42124,-35.45486 12.33393,-7.97181 27.49566,-7.15038 38.78618,2.10136 4.43974,3.63803 7.58308,8.26699 9.84694,14.50081 2.59524,7.14631 2.08105,17.0054 -1.24207,23.81566 -3.17484,6.50639 -9.43435,12.66698 -15.98505,15.73242 -7.09051,3.31805 -16.90409,3.93817 -23.55125,1.48822 z"
           style="fill:#ffffff;stroke-width:0.79976583" /></g></g></g></svg>